<svg xmlns="http://www.w3.org/2000/svg" class="icon" viewBox="0 0 15 16"><title></title><path d="M7.571 1.143c1.607-.018 2.938.884 3.607 2.33.205.438.241 1.116.241 1.598 0 .571-.045 1.134-.08 1.705.071.036.17.063.25.063.321 0 .589-.241.911-.241.304 0 .741.214.741.571 0 .857-1.795.696-1.795 1.446 0 .134.054.259.107.384.429.938 1.241 1.839 2.205 2.241.232.098.464.152.714.205a.3.3 0 0 1 .25.313c0 .607-1.545.857-1.955.92-.179.277-.045.929-.518.929-.366 0-.732-.116-1.125-.116a2.82 2.82 0 0 0-.554.045c-1.063.179-1.42 1.321-3.161 1.321-1.679 0-2.08-1.143-3.116-1.321a2.97 2.97 0 0 0-.563-.045c-.402 0-.786.134-1.107.134-.5 0-.348-.661-.536-.946-.411-.063-1.955-.313-1.955-.92a.3.3 0 0 1 .25-.313c.25-.054.482-.107.714-.205.955-.393 1.786-1.304 2.205-2.241.054-.125.107-.25.107-.384 0-.75-1.804-.607-1.804-1.438 0-.348.411-.571.723-.571.277 0 .554.232.902.232a.635.635 0 0 0 .286-.063c-.036-.563-.08-1.125-.08-1.696 0-.482.036-1.17.241-1.607.786-1.696 2.116-2.313 3.893-2.33z"/></svg>